<svg width="585" height="584" xmlns="http://www.w3.org/2000/svg" xmlns:xlink="http://www.w3.org/1999/xlink" overflow="hidden"><defs><clipPath id="clip0"><rect x="233" y="68" width="585" height="584"/></clipPath></defs><g clip-path="url(#clip0)" transform="translate(-233 -68)"><path d="M359.939 154.267C374.757 153.349 386.025 140.591 385.106 125.773 384.187 110.955 371.429 99.687 356.612 100.606 341.793 101.525 330.526 114.282 331.444 129.1 331.444 129.101 331.444 129.101 331.444 129.101 332.364 143.918 345.121 155.186 359.939 154.267Z" stroke="#00B0F0" stroke-width="6.08336" fill="#BDDBFF" transform="matrix(1.00171 0 0 1 233 68)"/><path d="M517.083 40.6367 456.25 109.5 453.208 172.675 414.725 224.317C413.799 223.282 412.687 222.43 411.446 221.804L380.348 206.833 363.431 188.662 422.129 185.012C428.477 184.619 433.304 179.154 432.911 172.806 432.518 166.458 427.053 161.631 420.705 162.024L351.963 166.282 343.295 159.28C342.96 158.988 342.644 158.672 342.297 158.404 341.95 158.136 341.78 158.039 341.524 157.85L340.886 157.333 340.886 157.382C329.254 149.314 313.357 151.658 304.55 162.741L267.058 209.972C265.952 211.37 264.989 212.873 264.181 214.462L260.653 221.336C260.087 222.607 259.699 223.95 259.497 225.327L250.694 286.391 216.457 327.679C211.041 334.209 211.944 343.892 218.474 349.308 225.004 354.724 234.687 353.821 240.103 347.291L277.102 302.676C278.91 300.498 280.082 297.863 280.484 295.06L286.391 254.064 324.43 279.961 321.109 333.032C320.897 336.615 321.959 340.158 324.108 343.033L298.083 346.75 219 413.667 206.833 462.333 133.833 474.5 109.5 504.917 60.8333 517.083 48.6667 547.5 541.417 547.5 541.417 30.4167ZM354.823 286.166 355.638 273.148C355.988 267.731 353.442 262.534 348.946 259.491L314.831 236.265 343.1 200.659 365 224.134C365.976 225.182 367.14 226.036 368.431 226.653L390.647 237.353 365 246.983ZM517.083 365 486.667 377.167 456.25 352.833 407.583 358.917 371.083 322.417 385.379 265.325 425.876 250.086 477.049 181.411 479.878 121.667 517.083 79.2233Z" stroke="#00B0F0" stroke-width="6.08336" fill="#BDDBFF" transform="matrix(1.00171 0 0 1 233 68)"/></g></svg>